<svg width="25" height="26" viewBox="0 0 25 26" fill="none" xmlns="http://www.w3.org/2000/svg">
<path d="M25 2.28571C25 1.29799 24.202 0.5 23.2143 0.5H1.78571C0.797991 0.5 0 1.29799 0 2.28571C0 3.27344 0.797991 4.07143 1.78571 4.07143H23.2143C24.202 4.07143 25 3.27344 25 2.28571ZM25 16.5714C25 15.5837 24.202 14.7857 23.2143 14.7857H1.78571C0.797991 14.7857 0 15.5837 0 16.5714C0 17.5592 0.797991 18.3571 1.78571 18.3571H23.2143C24.202 18.3571 25 17.5592 25 16.5714ZM0 9.42857C0 10.4163 0.797991 11.2143 1.78571 11.2143H23.2143C24.202 11.2143 25 10.4163 25 9.42857C25 8.44085 24.202 7.64286 23.2143 7.64286H1.78571C0.797991 7.64286 0 8.44085 0 9.42857ZM25 23.7143C25 22.7266 24.202 21.9286 23.2143 21.9286H1.78571C0.797991 21.9286 0 22.7266 0 23.7143C0 24.702 0.797991 25.5 1.78571 25.5H23.2143C24.202 25.5 25 24.702 25 23.7143Z" fill="white"/>
</svg>
