<svg width="193" height="26" viewBox="0 0 193 26" fill="none" xmlns="http://www.w3.org/2000/svg">
<g clip-path="url(#clip0_5_107)">
<path d="M78.3149 24.5946C79.9427 25.1965 81.6649 25.5031 83.4004 25.5C90.8803 25.5 96.9819 19.8914 96.9819 13C96.9819 6.10866 90.8803 0.500006 83.4004 0.500006C80.4298 0.487034 77.5295 1.40338 75.1056 3.12073C72.837 1.50604 69.5674 0.500006 65.9406 0.500006C63.1031 0.457144 60.3005 1.13012 57.7918 2.45675C55.2848 1.13012 52.4839 0.457124 49.6479 0.500006C48.3462 0.500764 47.048 0.637318 45.7747 0.90745L45.5433 0.957752H37.2485V14.9668C37.2485 16.6821 35.498 18.0755 33.3501 18.0755C31.2022 18.0755 29.4517 16.6821 29.4517 14.9668V0.957752H0V8.29176H7.4497V24.5946H17.1026V8.29176H20.9406V17.0443C20.9406 21.4608 26.504 25.0573 33.34 25.0573C34.6537 25.0574 35.9638 24.9191 37.2485 24.6449L37.4899 24.5895H45.7747V10.5905C45.7747 8.87526 47.5201 7.4819 49.673 7.4819C51.826 7.4819 53.5664 8.87526 53.5664 10.5905V24.5946H62.0674V10.5905C62.0674 8.87526 63.8179 7.4819 65.9658 7.4819C68.1137 7.4819 69.8642 8.87526 69.8642 10.5905V24.5946H78.3149ZM28.169 2.25554V6.99397H22.2535V2.25554H28.169ZM15.8149 6.99397V23.2918H8.77264V6.99397H1.29779V2.25554H20.9507V6.99397H15.8149ZM37.2485 23.327C35.9693 23.6163 34.6616 23.7614 33.3501 23.7596C27.2284 23.7596 22.2535 20.7415 22.2535 17.0443V8.29176H28.169V14.9668C28.169 17.3964 30.503 19.3732 33.3652 19.3732C34.8101 19.3888 36.2057 18.8485 37.2636 17.8642L37.2485 23.327ZM41.9115 2.25554C40.6915 3.02239 39.5626 3.92522 38.5463 4.94669V2.25554H41.9115ZM44.4517 2.5825V17.0443C44.4517 19.6097 42.0523 21.8431 38.5463 22.9749V8.51308C38.5463 5.94769 40.9406 3.71429 44.4517 2.5825ZM44.4517 20.6056V23.2918H41.0916C42.3934 22.6577 43.5404 21.746 44.4517 20.6207V20.6056ZM77.0372 8.5332V22.6177C73.5161 20.6509 71.1368 17.0845 71.1368 13.0604C71.1532 11.4762 71.5187 9.91513 72.2073 8.48837C72.8959 7.0616 73.8907 5.80423 75.1207 4.80584C75.6835 5.25372 76.1452 5.81556 76.4755 6.45448C76.8058 7.0934 76.9972 7.79495 77.0372 8.51308V8.5332ZM76.1167 3.9658C75.9658 3.82495 75.8099 3.68411 75.6439 3.55333C75.8099 3.66399 75.9557 3.80483 76.1167 3.94568V3.9658ZM70.6539 8.75453C70.1643 7.94996 69.4702 7.28957 68.6422 6.84068C67.8142 6.39179 66.882 6.17045 65.9406 6.1992C63.0734 6.1992 60.7445 8.18109 60.7445 10.6107V23.2918H54.829V10.5905C54.829 8.16097 52.5 6.17908 49.6378 6.17908C48.1926 6.16199 46.7965 6.70245 45.7394 7.68813V2.22536C47.0189 1.93776 48.3265 1.79435 49.6378 1.79779C52.369 1.74455 55.0647 2.42367 57.4447 3.76459L57.7817 3.9658L58.1187 3.76459C60.5731 2.44332 63.3227 1.76683 66.1099 1.7985C68.8971 1.83017 71.6306 2.56898 74.0543 3.94568C74.1449 3.8652 74.2404 3.78974 74.336 3.71429C72.7059 5.05125 71.4394 6.77792 70.6539 8.73441V8.75453ZM75.0956 3.14588C74.9095 3.2817 74.7284 3.42254 74.5473 3.56339C74.7284 3.40242 74.9095 3.26157 75.0956 3.12576V3.14588ZM75.7193 23.3119H71.1368V18.327C72.1922 20.3624 73.7748 22.077 75.7193 23.2918V23.3119ZM83.4004 24.2274C81.6637 24.2302 79.9436 23.8882 78.34 23.2213V16.5614C78.96 17.2982 79.7351 17.8891 80.6098 18.2917C81.4846 18.6943 82.4375 18.8987 83.4004 18.8903C86.9215 18.8903 89.7636 16.2495 89.7636 13C89.7636 9.75051 86.9115 7.10966 83.4004 7.10966C82.4375 7.10132 81.4846 7.30576 80.6098 7.70836C79.7351 8.11096 78.96 8.70179 78.34 9.43864V8.51308C78.3082 7.64769 78.0968 6.79836 77.7193 6.01901C77.3417 5.23966 76.8063 4.54732 76.1469 3.98592C78.2926 2.54926 80.8182 1.78562 83.4004 1.79276C90.166 1.79276 95.669 6.82294 95.669 13C95.669 19.1771 90.166 24.2072 83.4004 24.2072V24.2274ZM78.34 13C78.34 10.4849 80.6087 8.40242 83.4004 8.40242C86.1922 8.40242 88.4658 10.4648 88.4658 13C88.4658 15.5352 86.1922 17.6026 83.4004 17.6026C80.6087 17.6026 78.34 15.5352 78.34 13Z" fill="#E8E3DF"/>
<path d="M106.901 0.957733V23.7243H117.897V24.5946H105.926V0.957733H106.901Z" fill="#E8E3DF"/>
<path d="M135.347 0.957733L144.427 24.5996H143.421L140.428 16.7676H129.432L126.504 24.5946H125.498L134.507 0.957733H135.347ZM134.879 2.1348L129.779 15.8521H140.091L134.879 2.1348Z" fill="#E8E3DF"/>
<path d="M159.698 0.957733C163.934 0.957733 167.394 2.60763 167.394 6.99395C167.394 10.0523 165.614 11.833 162.923 12.6076C166.318 13.0453 168.843 14.8259 168.843 18.4225C168.843 22.5925 165.478 24.6096 160.976 24.6096H155.055V0.957733H159.698ZM166.419 6.99395C166.419 3.42755 163.561 1.84808 159.663 1.84808H156.031V12.2907H159.698C163.763 12.2907 166.419 10.4748 166.419 6.97886V6.99395ZM167.867 18.3571C167.867 14.8612 164.909 13.1459 160.941 13.1459H156.031V23.7243H161.061C165.211 23.7243 167.867 21.7726 167.867 18.342V18.3571Z" fill="#E8E3DF"/>
<path d="M178.999 22.3461C180.873 23.4521 183.01 24.0325 185.186 24.0262C188.818 24.0262 191.675 21.838 191.675 18.8149C191.675 11.3803 179.366 14.9467 179.366 6.94366C179.366 3.14085 182.158 0.620726 186.363 0.620726C188.369 0.5932 190.337 1.16793 192.012 2.27063L191.61 3.04024C190.035 2.05889 188.218 1.53628 186.363 1.53119C182.897 1.53119 180.327 3.54326 180.327 6.87324C180.327 14.1066 192.636 10.505 192.636 18.7445C192.636 22.3763 189.24 24.9316 185.171 24.9316C182.872 24.9677 180.607 24.3633 178.632 23.1861L178.999 22.3461Z" fill="#E8E3DF"/>
</g>
<defs>
<clipPath id="clip0_5_107">
<rect width="192.651" height="25" fill="white" transform="translate(0 0.5)"/>
</clipPath>
</defs>
</svg>
