<svg width="20" height="20" viewBox="0 0 20 20" fill="none" xmlns="http://www.w3.org/2000/svg">
<g clip-path="url(#clip0_9_73)">
<path d="M13.5586 0.960964C13.8594 0.234401 14.6523 -0.152317 15.4102 0.0547138L18.8477 0.992214C19.5273 1.17971 20 1.7969 20 2.50003C20 12.1641 12.1641 20 2.5 20C1.79688 20 1.17969 19.5274 0.992191 18.8477L0.0546909 15.4102C-0.15234 14.6524 0.234378 13.8594 0.960941 13.5586L4.71094 11.9961C5.34766 11.7305 6.08594 11.9141 6.51953 12.4492L8.09766 14.375C10.8477 13.0742 13.0742 10.8477 14.375 8.09768L12.4492 6.52346C11.9141 6.08596 11.7305 5.35159 11.9961 4.71487L13.5586 0.96487V0.960964Z" fill="white"/>
</g>
<defs>
<clipPath id="clip0_9_73">
<rect width="20" height="20" fill="white"/>
</clipPath>
</defs>
</svg>
